<?xml version="1.0" encoding="UTF-8" ?>
<!DOCTYPE svg PUBLIC "-//W3C//DTD SVG 1.1//EN" "http://www.w3.org/Graphics/SVG/1.1/DTD/svg11.dtd">
<svg width="36pt" height="36pt" viewBox="0 0 36 36" version="1.1" xmlns="http://www.w3.org/2000/svg">
<g id="#3399ffff">
<path fill="#3399ff" opacity="1.00" d=" M 0.00 0.00 L 36.00 0.00 L 36.00 12.00 C 34.30 12.00 32.61 12.00 30.91 12.00 C 31.65 10.50 32.42 9.02 33.17 7.53 C 31.21 7.53 29.24 7.56 27.28 7.61 C 26.62 9.06 25.97 10.52 25.34 11.99 C 23.71 11.99 22.08 12.00 20.44 12.01 C 19.56 9.69 18.61 7.40 17.64 5.12 C 16.65 7.40 15.70 9.68 14.81 11.99 C 13.20 12.00 11.58 12.00 9.97 12.00 C 9.29 10.49 8.57 9.00 7.84 7.51 C 5.93 7.54 4.03 7.54 2.12 7.54 C 2.86 9.02 3.62 10.50 4.35 11.99 C 2.90 11.99 1.45 12.00 0.00 12.01 L 0.00 0.00 Z" />
</g>
<g id="#ffffffff">
<path fill="#ffffff" opacity="1.00" d=" M 14.81 11.99 C 15.70 9.68 16.65 7.40 17.64 5.12 C 18.61 7.40 19.56 9.69 20.44 12.01 C 21.16 13.86 21.93 15.69 22.74 17.50 C 23.69 15.71 24.56 13.87 25.34 11.99 C 25.97 10.52 26.62 9.06 27.28 7.61 C 29.24 7.56 31.21 7.53 33.17 7.53 C 32.42 9.02 31.65 10.50 30.91 12.00 C 29.01 15.97 27.17 19.98 25.31 23.99 C 24.36 26.06 23.35 28.09 22.32 30.13 C 21.50 28.09 20.70 26.05 19.92 24.00 C 19.22 22.18 18.48 20.37 17.70 18.57 C 16.86 20.34 16.04 22.12 15.31 23.93 C 14.49 26.00 13.72 28.09 12.91 30.16 C 11.93 28.12 10.95 26.07 10.02 24.01 C 8.14 19.99 6.24 15.99 4.35 11.99 C 3.62 10.50 2.86 9.02 2.12 7.54 C 4.03 7.54 5.93 7.54 7.84 7.51 C 8.57 9.00 9.29 10.49 9.97 12.00 C 10.76 13.80 11.59 15.58 12.46 17.34 C 13.29 15.58 14.09 13.81 14.81 11.99 Z" />
</g>
<g id="#ff6666ff">
<path fill="#ff6666" opacity="1.00" d=" M 0.00 12.01 C 1.45 12.00 2.90 11.99 4.35 11.99 C 6.24 15.99 8.14 19.99 10.02 24.01 C 6.68 24.00 3.34 24.00 0.00 24.00 L 0.00 12.01 Z" />
<path fill="#ff6666" opacity="1.00" d=" M 30.91 12.00 C 32.61 12.00 34.30 12.00 36.00 12.00 L 36.00 24.00 C 32.44 24.01 28.88 24.00 25.31 23.99 C 27.17 19.98 29.01 15.97 30.91 12.00 Z" />
</g>
<g id="#fe7676ff">
<path fill="#fe7676" opacity="1.00" d=" M 9.97 12.00 C 11.58 12.00 13.20 12.00 14.81 11.99 C 14.09 13.81 13.29 15.58 12.46 17.34 C 11.59 15.58 10.76 13.80 9.97 12.00 Z" />
</g>
<g id="#fe7575ff">
<path fill="#fe7575" opacity="1.00" d=" M 20.44 12.01 C 22.08 12.00 23.71 11.99 25.34 11.99 C 24.56 13.87 23.69 15.71 22.74 17.50 C 21.93 15.69 21.16 13.86 20.44 12.01 Z" />
</g>
<g id="#fe797aff">
<path fill="#fe797a" opacity="1.00" d=" M 17.70 18.57 C 18.48 20.37 19.22 22.18 19.92 24.00 C 18.38 23.98 16.84 23.95 15.31 23.93 C 16.04 22.12 16.86 20.34 17.70 18.57 Z" />
</g>
<g id="#ffcc00ff">
<path fill="#ffcc00" opacity="1.00" d=" M 0.00 24.00 C 3.34 24.00 6.68 24.00 10.02 24.01 C 10.95 26.07 11.93 28.12 12.91 30.16 C 13.72 28.09 14.49 26.00 15.31 23.93 C 16.84 23.95 18.38 23.98 19.92 24.00 C 20.70 26.05 21.50 28.09 22.32 30.13 C 23.35 28.09 24.36 26.06 25.31 23.99 C 28.88 24.00 32.44 24.01 36.00 24.00 L 36.00 36.00 L 0.00 36.00 L 0.00 24.00 Z" />
</g>
</svg>
