<?xml version="1.0" encoding="UTF-8" ?>
<!DOCTYPE svg PUBLIC "-//W3C//DTD SVG 1.1//EN" "http://www.w3.org/Graphics/SVG/1.1/DTD/svg11.dtd">
<svg width="380pt" height="308pt" viewBox="0 0 380 308" version="1.1" xmlns="http://www.w3.org/2000/svg">
<g id="#be323eff">
</g>
<g id="#fe6856ff">
<path fill="#fe6856" opacity="1.00" d=" M 188.41 7.72 C 186.94 4.61 192.01 4.58 190.68 7.74 C 189.70 14.45 190.03 21.25 189.98 28.00 C 190.03 75.34 189.98 122.67 190.00 170.01 L 189.00 170.01 C 189.02 121.34 188.96 72.67 189.03 24.00 C 188.90 18.58 189.31 13.09 188.41 7.72 Z" />
</g>
<g id="#ff3434ff">
<path fill="#ff3434" opacity="1.00" d=" M 188.41 7.72 C 189.31 13.09 188.90 18.58 189.03 24.00 C 188.96 72.67 189.02 121.34 189.00 170.01 C 182.63 187.66 174.27 204.70 167.16 222.13 C 157.80 244.09 148.51 266.11 138.94 287.97 C 136.61 291.13 136.48 295.54 133.75 298.39 C 132.80 294.29 133.85 289.77 132.15 285.87 L 131.86 285.14 C 131.89 280.75 132.01 276.38 131.99 272.00 C 132.03 267.99 132.04 263.99 132.02 259.99 C 132.09 256.22 131.82 252.49 131.19 248.79 C 131.09 248.14 130.91 246.86 130.81 246.21 C 130.87 242.46 131.04 238.74 130.99 235.00 C 131.00 231.31 131.07 227.66 131.00 223.99 C 130.98 220.24 130.74 216.50 130.27 212.78 C 130.02 208.27 130.10 203.75 129.72 199.26 C 129.53 192.46 131.08 185.41 129.31 178.74 C 128.95 171.58 129.06 164.41 128.67 157.26 C 128.78 154.15 128.93 151.07 129.02 147.98 C 129.82 143.58 132.49 139.71 133.42 135.31 C 148.75 99.96 163.77 64.39 178.89 28.93 C 182.18 21.92 184.25 14.29 188.41 7.72 Z" />
</g>
<g id="#fffe33ff">
<path fill="#fffe33" opacity="1.00" d=" M 189.98 28.00 C 190.03 21.25 189.70 14.45 190.68 7.74 C 193.11 11.50 194.29 15.87 196.11 19.93 C 211.75 56.62 227.31 93.34 243.05 129.98 C 246.20 135.94 247.26 142.83 251.05 148.45 C 250.98 150.89 250.90 153.33 250.80 155.78 C 249.94 160.87 249.85 166.07 250.22 171.22 C 250.00 176.40 250.13 181.60 249.81 186.79 C 249.36 189.83 248.94 192.91 248.97 196.00 C 248.93 199.32 248.96 202.67 249.01 206.00 C 249.02 209.05 249.10 212.15 249.22 215.22 C 249.07 216.74 248.92 218.26 248.77 219.79 C 248.39 222.49 248.00 225.24 247.98 227.99 C 247.91 230.97 247.97 234.00 248.00 237.00 C 247.97 239.98 248.00 243.01 248.01 246.01 C 247.99 247.74 247.93 251.19 247.90 252.92 C 247.46 255.57 246.98 258.28 246.98 261.00 C 246.91 263.97 246.97 267.00 247.00 270.00 C 246.97 272.98 246.97 276.00 247.01 279.00 C 246.98 282.39 247.04 285.82 247.19 289.22 C 247.22 293.51 246.61 297.94 247.50 302.20 C 248.15 302.99 245.84 304.96 245.91 303.13 C 233.01 272.70 220.18 242.25 207.21 211.85 C 201.60 197.86 194.88 184.22 190.00 170.01 C 189.98 122.67 190.03 75.34 189.98 28.00 Z" />
</g>
<g id="#3499ffff">
<path fill="#3499ff" opacity="1.00" d=" M 3.87 35.07 C 27.22 34.93 50.57 34.98 73.92 35.04 C 90.49 68.92 106.63 103.02 122.99 137.01 C 124.41 140.73 127.26 144.04 127.97 147.99 C 128.03 151.07 127.77 154.25 128.67 157.26 C 129.06 164.41 128.95 171.58 129.31 178.74 C 129.49 185.52 127.86 192.60 129.72 199.26 C 130.10 203.75 130.02 208.27 130.27 212.78 C 130.14 216.51 129.96 220.26 130.00 224.00 C 129.98 227.66 129.95 231.34 129.99 235.01 C 129.91 238.77 130.18 242.50 130.81 246.21 C 130.91 246.86 131.09 248.14 131.19 248.79 C 131.11 252.51 130.97 256.27 131.01 260.00 C 130.98 264.00 130.97 268.00 130.99 272.00 C 131.55 276.28 129.87 281.09 131.86 285.14 L 132.15 285.87 C 131.83 290.96 132.68 296.23 131.44 301.25 C 98.80 233.90 66.71 166.31 34.08 98.97 C 24.34 77.53 13.26 56.65 3.87 35.07 Z" />
</g>
<g id="#349967ff">
<path fill="#349967" opacity="1.00" d=" M 305.25 35.15 C 328.54 34.85 351.84 34.99 375.13 35.08 C 344.68 100.66 312.74 165.56 281.90 230.96 C 270.21 254.61 259.29 278.60 247.50 302.20 C 246.61 297.94 247.22 293.51 247.19 289.22 C 247.70 285.82 248.11 282.43 248.03 279.00 C 248.02 275.98 248.03 273.00 247.99 270.00 C 247.98 266.97 248.01 264.00 247.99 260.99 C 248.01 259.26 248.07 255.81 248.10 254.08 C 248.49 251.38 249.02 248.73 249.02 246.00 C 249.05 242.98 249.04 240.00 249.00 237.00 C 248.99 233.98 249.05 231.01 248.98 228.01 C 248.92 225.26 248.85 222.52 248.77 219.79 C 248.92 218.26 249.07 216.74 249.22 215.22 C 249.62 212.15 250.07 209.10 250.03 206.00 C 250.03 202.65 250.05 199.34 249.98 196.00 C 249.94 192.91 249.92 189.86 249.81 186.79 C 250.13 181.60 250.00 176.40 250.22 171.22 C 251.03 166.11 251.14 160.93 250.80 155.78 C 250.90 153.33 250.98 150.89 251.05 148.45 C 269.69 110.97 287.04 72.85 305.25 35.15 Z" />
</g>
<g id="#8e9ad3ff">
<path fill="#8e9ad3" opacity="1.00" d=" M 127.97 147.99 L 129.02 147.98 C 128.93 151.07 128.78 154.15 128.67 157.26 C 127.77 154.25 128.03 151.07 127.97 147.99 Z" />
</g>
<g id="#9fcf77ff">
<path fill="#9fcf77" opacity="1.00" d=" M 250.22 171.22 C 249.85 166.07 249.94 160.87 250.80 155.78 C 251.14 160.93 251.03 166.11 250.22 171.22 Z" />
</g>
<g id="#bd9abbff">
<path fill="#bd9abb" opacity="1.00" d=" M 129.31 178.74 C 131.08 185.41 129.53 192.46 129.72 199.26 C 127.86 192.60 129.49 185.52 129.31 178.74 Z" />
</g>
<g id="#eef66dff">
<path fill="#eef66d" opacity="1.00" d=" M 248.97 196.00 C 248.94 192.91 249.36 189.83 249.81 186.79 C 249.92 189.86 249.94 192.91 249.98 196.00 L 248.97 196.00 Z" />
</g>
<g id="#c2e094ff">
<path fill="#c2e094" opacity="1.00" d=" M 248.97 196.00 L 249.98 196.00 C 250.05 199.34 250.03 202.65 250.03 206.00 L 249.01 206.00 C 248.96 202.67 248.93 199.32 248.97 196.00 Z" />
</g>
<g id="#7ebe92ff">
<path fill="#7ebe92" opacity="1.00" d=" M 249.01 206.00 L 250.03 206.00 C 250.07 209.10 249.62 212.15 249.22 215.22 C 249.10 212.15 249.02 209.05 249.01 206.00 Z" />
</g>
<g id="#ed818aff">
<path fill="#ed818a" opacity="1.00" d=" M 130.27 212.78 C 130.74 216.50 130.98 220.24 131.00 223.99 L 130.00 224.00 C 129.96 220.26 130.14 216.51 130.27 212.78 Z" />
</g>
<g id="#f8fb6aff">
<path fill="#f8fb6a" opacity="1.00" d=" M 247.98 227.99 C 248.00 225.24 248.39 222.49 248.77 219.79 C 248.85 222.52 248.92 225.26 248.98 228.01 L 247.98 227.99 Z" />
</g>
<g id="#b7acd0ff">
<path fill="#b7acd0" opacity="1.00" d=" M 130.00 224.00 L 131.00 223.99 C 131.07 227.66 131.00 231.31 130.99 235.00 L 129.99 235.01 C 129.95 231.34 129.98 227.66 130.00 224.00 Z" />
</g>
<g id="#d7eb93ff">
<path fill="#d7eb93" opacity="1.00" d=" M 247.98 227.99 L 248.98 228.01 C 249.05 231.01 248.99 233.98 249.00 237.00 L 248.00 237.00 C 247.97 234.00 247.91 230.97 247.98 227.99 Z" />
</g>
<g id="#70b1f9ff">
<path fill="#70b1f9" opacity="1.00" d=" M 129.99 235.01 L 130.99 235.00 C 131.04 238.74 130.87 242.46 130.81 246.21 C 130.18 242.50 129.91 238.77 129.99 235.01 Z" />
</g>
<g id="#9fcfa0ff">
<path fill="#9fcfa0" opacity="1.00" d=" M 248.00 237.00 L 249.00 237.00 C 249.04 240.00 249.05 242.98 249.02 246.00 L 248.01 246.01 C 248.00 243.01 247.97 239.98 248.00 237.00 Z" />
</g>
<g id="#5faf86ff">
<path fill="#5faf86" opacity="1.00" d=" M 248.01 246.01 L 249.02 246.00 C 249.02 248.73 248.49 251.38 248.10 254.08 L 247.90 252.92 C 247.93 251.19 247.99 247.74 248.01 246.01 Z" />
</g>
<g id="#f77e82ff">
<path fill="#f77e82" opacity="1.00" d=" M 131.19 248.79 C 131.82 252.49 132.09 256.22 132.02 259.99 L 131.01 260.00 C 130.97 256.27 131.11 252.51 131.19 248.79 Z" />
</g>
<g id="#fdfe69ff">
<path fill="#fdfe69" opacity="1.00" d=" M 246.98 261.00 C 246.98 258.28 247.46 255.57 247.90 252.92 L 248.10 254.08 C 248.07 255.81 248.01 259.26 247.99 260.99 L 246.98 261.00 Z" />
</g>
<g id="#c7b2ceff">
<path fill="#c7b2ce" opacity="1.00" d=" M 131.01 260.00 L 132.02 259.99 C 132.04 263.99 132.03 267.99 131.99 272.00 L 130.99 272.00 C 130.97 268.00 130.98 264.00 131.01 260.00 Z" />
</g>
<g id="#e3f196ff">
<path fill="#e3f196" opacity="1.00" d=" M 246.98 261.00 L 247.99 260.99 C 248.01 264.00 247.98 266.97 247.99 270.00 L 247.00 270.00 C 246.97 267.00 246.91 263.97 246.98 261.00 Z" />
</g>
<g id="#b0d7a9ff">
<path fill="#b0d7a9" opacity="1.00" d=" M 247.00 270.00 L 247.99 270.00 C 248.03 273.00 248.02 275.98 248.03 279.00 L 247.01 279.00 C 246.97 276.00 246.97 272.98 247.00 270.00 Z" />
</g>
<g id="#7ab9fbff">
<path fill="#7ab9fb" opacity="1.00" d=" M 130.99 272.00 L 131.99 272.00 C 132.01 276.38 131.89 280.75 131.86 285.14 C 129.87 281.09 131.55 276.28 130.99 272.00 Z" />
</g>
<g id="#6db691ff">
<path fill="#6db691" opacity="1.00" d=" M 247.01 279.00 L 248.03 279.00 C 248.11 282.43 247.70 285.82 247.19 289.22 C 247.04 285.82 246.98 282.39 247.01 279.00 Z" />
</g>
<g id="#f09095ff">
<path fill="#f09095" opacity="1.00" d=" M 132.15 285.87 C 133.85 289.77 132.80 294.29 133.75 298.39 C 134.47 299.96 131.54 303.72 131.44 301.25 C 132.68 296.23 131.83 290.96 132.15 285.87 Z" />
</g>
</svg>
